<?xml version="1.0" encoding="UTF-8"?>
<svg
                        xmlns="http://www.w3.org/2000/svg"
                        width="61"
                        height="27"
                        viewBox="0 0 61 27"
                        fill="none"
                        class="fade-in"
                      >
                        <path
                          fill-rule="evenodd"
                          clip-rule="evenodd"
                          d="M57.1528 1.58144C57.1525 1.37377 57.1931 1.16808 57.2723 0.97613C57.3515 0.784184 57.4679 0.60976 57.6147 0.462853C57.7614 0.315945 57.9357 0.199441 58.1276 0.120017C58.3195 0.0405933 58.5251 -0.000190581 58.7328 2.72737e-06C58.9406 -0.000383489 59.1465 0.0402523 59.3386 0.119581C59.5307 0.19891 59.7052 0.315372 59.8522 0.462289C59.9992 0.609206 60.1157 0.783689 60.1951 0.975736C60.2745 1.16778 60.3153 1.37362 60.315 1.58144C60.3154 1.78927 60.2747 1.99513 60.1953 2.1872C60.1159 2.37927 59.9994 2.55376 59.8524 2.70067C59.7054 2.84758 59.5308 2.964 59.3387 3.04326C59.1465 3.12251 58.9406 3.16303 58.7328 3.1625C58.5251 3.16284 58.3194 3.12217 58.1275 3.04282C57.9356 2.96347 57.7613 2.84701 57.6145 2.70011C57.4677 2.55321 57.3513 2.37877 57.2721 2.1868C57.1929 1.99483 57.1524 1.78911 57.1528 1.58144ZM58.7335 0.31387C59.4368 0.314237 60.0084 0.88037 60.0066 1.58364C60.0084 2.2869 59.4346 2.85487 58.7335 2.85487C58.5669 2.85463 58.402 2.82155 58.2481 2.75751C58.0943 2.69348 57.9546 2.59975 57.837 2.48169C57.7194 2.36362 57.6262 2.22354 57.5628 2.06944C57.4994 1.91535 57.467 1.75027 57.4674 1.58364C57.4667 1.41699 57.4989 1.25185 57.5623 1.09771C57.6256 0.943566 57.7188 0.803463 57.8364 0.685458C57.9541 0.567452 58.0939 0.473872 58.2479 0.410101C58.4019 0.34633 58.5669 0.313627 58.7335 0.31387ZM59.3492 2.07754L59.538 2.40754L59.1284 2.4101L58.9975 2.14244C58.9392 2.02525 58.864 1.91727 58.7742 1.82197C58.7097 1.75487 58.6507 1.738 58.5051 1.738L58.445 1.73837L58.4442 2.40937H58.1065V0.771469H58.9224C59.274 0.771469 59.439 0.967636 59.439 1.22724C59.4397 1.47474 59.2725 1.65257 58.9961 1.68557L58.9968 1.69474C59.1372 1.7435 59.1838 1.78934 59.3492 2.07754ZM58.4439 1.02594V1.47584H58.786C59.0148 1.47584 59.0903 1.36437 59.087 1.2485C59.087 1.10404 58.9722 1.02484 58.7493 1.02484L58.4439 1.02594ZM42.7615 4.93607C44.3558 3.04774 46.7149 1.6951 50.1264 1.6951C56.0316 1.6951 57.5763 5.5561 57.3827 9.20444C57.268 11.3971 56.5643 14.0092 56.0385 15.5716C53.7029 22.513 50.8979 26.9023 44.5142 26.9016C41.601 26.9023 38.935 25.7657 37.8845 22.902C35.9657 25.3301 33.0331 26.9148 29.6895 26.9313C27.1338 26.9438 25.1465 26.0407 23.8833 24.4893C22.3837 26.1444 19.846 26.9023 17.3237 26.9031C15.0577 26.9016 13.1657 26.1122 11.9238 24.7636C10.54 26.1591 8.36564 26.8998 5.59621 26.8349C2.04871 26.7498 0.066878 24.6213 0.00161133 21.6667C-0.095922 17.0929 4.26008 7.6505 6.05565 4.78354C7.29498 2.74964 9.01648 1.7512 11.3026 1.7501C12.5577 1.7512 13.8466 1.96937 14.6433 2.81344C15.2986 3.50644 15.4038 4.12244 15.4522 5.28844C17.4615 2.05077 20.8481 1.61077 23.9552 1.6115C26.3327 1.6115 28.3061 2.5014 29.134 3.8467C30.7275 2.49224 33.0225 1.63277 35.7754 1.63277C38.5933 1.63314 40.6924 2.32064 41.9992 3.79904C42.2874 4.12354 42.4924 4.3714 42.7615 4.93607ZM11.677 20.8732C11.7819 19.7674 10.9536 18.5731 7.64881 19.1466C7.97698 18.4114 8.46501 17.4038 9.01905 16.2598C10.7944 12.5939 13.2478 7.52804 13.294 5.5462C13.3189 4.56904 12.9251 3.7543 11.3404 3.75504C9.66621 3.7543 8.61608 4.45464 7.75588 5.86777C5.89028 8.84694 1.92844 17.8339 2.01168 21.7184C2.05861 23.9389 3.78011 24.8153 5.69301 24.86C8.32934 24.9212 11.3661 24.1809 11.6774 20.8729L11.677 20.8732ZM18.4053 16.0956C18.1853 16.6874 17.7717 17.9267 17.4377 19.2383C18.5223 18.9677 19.3345 18.7803 20.7267 18.8126C22.314 18.8514 23.3297 19.5085 23.3289 20.8219C23.3289 24.0024 19.8115 24.9366 17.3743 24.9374C14.6954 24.9374 12.3421 23.4139 12.3421 20.4846C12.3421 17.0504 14.2033 11.843 15.9501 8.37614C18.0944 4.11694 20.2867 3.55117 24.0608 3.55117C25.7203 3.55117 27.6307 4.25957 27.6307 5.82597C27.6307 7.99737 25.7944 8.8253 23.9702 8.93017C23.1903 8.9749 21.9924 9.0178 21.276 8.96647C21.276 8.96647 20.6669 9.8923 20.0234 11.5386C23.3997 11.0634 24.8326 11.8301 24.2628 13.7826C23.4914 16.4223 21.2041 16.5964 18.405 16.0952L18.4053 16.0956ZM33.0588 9.0871C33.5043 8.46267 34.1001 7.88444 35.0142 7.88444C36.1344 7.88444 36.0259 8.47697 35.76 9.23414C35.0051 11.3901 37.285 11.447 37.8416 11.403C39.8319 11.2479 40.9286 9.96197 41.1984 7.7715C41.568 4.78904 39.0553 3.64394 35.87 3.64394C30.5607 3.64394 28.4766 6.89114 26.4885 11.5331C25.5546 13.7137 24.3783 17.4401 24.3787 19.8132C24.3783 23.1462 26.4064 24.9535 29.6748 24.9535C34.4477 24.9535 37.8203 21.1475 38.7839 16.4054C39.0806 14.9461 39.4461 12.2074 35.7391 12.36C33.8574 12.4377 32.7222 12.8528 32.1238 14.7756C31.5078 16.7563 33.7419 16.8102 33.7419 16.8102C33.2924 18.858 31.9764 20.0996 30.8038 20.1007C30.0719 20.1007 29.4061 19.7831 29.629 18.2343C29.9601 15.9698 32.0809 10.4617 33.0588 9.0871ZM55.065 11.803C54.5018 14.597 53.2405 17.9043 51.8699 20.3687C49.6332 24.3888 46.9203 24.952 44.5483 24.922C42.1778 24.8937 39.5052 24.0196 39.485 20.361C39.4707 17.7357 40.6026 14.0279 41.5644 11.6002C43.2419 7.19657 44.9527 3.60507 50.368 3.66924C56.6813 3.74294 55.5553 9.35844 55.065 11.803ZM47.1458 18.9666C48.0236 17.4797 50.4945 10.7356 50.562 9.04934C50.5818 8.558 50.5008 7.986 49.7088 7.97684C49.1657 7.96914 48.6935 8.07437 48.2689 8.73034C47.3148 9.9704 44.5219 17.5982 44.5692 19.1198C44.5864 19.6669 44.8919 20.1447 45.5636 20.1447C46.3373 20.1454 46.7659 19.613 47.1458 18.9666Z"
                          fill="#00153C"
                        ></path>
                      </svg>
