<?xml version="1.0" encoding="UTF-8"?>
<svg
                        xmlns="http://www.w3.org/2000/svg"
                        width="28"
                        height="28"
                        viewBox="0 0 28 28"
                        fill="none"
                        class="fade-in"
                      >
                        <g
                          clip-path="url(#svg27d27574-svg156df314-clip0_7081_7497)"
                        >
                          <path
                            fill-rule="evenodd"
                            clip-rule="evenodd"
                            d="M5.24697 4.98287C6.11337 5.68679 6.43839 5.63308 8.06538 5.52452L23.4035 4.60354C23.7288 4.60354 23.4583 4.27901 23.3498 4.22509L20.8025 2.38356C20.3144 2.00461 19.6641 1.57064 18.4177 1.6792L3.56584 2.76245C3.02419 2.81615 2.91601 3.08698 3.13171 3.30405L5.24697 4.98287ZM6.16784 8.55742V24.6958C6.16784 25.5631 6.60126 25.8876 7.57677 25.8339L24.4333 24.8585C25.4094 24.8049 25.5181 24.2083 25.5181 23.5037V7.47368C25.5181 6.77026 25.2475 6.39092 24.65 6.44507L7.03474 7.47368C6.38463 7.52832 6.16784 7.8535 6.16784 8.55742ZM22.8086 9.42311C22.9167 9.911 22.8086 10.3985 22.3198 10.4533L21.5076 10.6151V22.5295C20.8025 22.9085 20.1522 23.1252 19.6103 23.1252C18.7428 23.1252 18.5255 22.8542 17.8757 22.0423L12.563 13.7022V21.7715L14.2442 22.1508C14.2442 22.1508 14.2442 23.1252 12.8878 23.1252L9.14879 23.3421C9.04017 23.1252 9.14879 22.5841 9.52806 22.4757L10.5038 22.2052V11.5361L9.14906 11.4275C9.04039 10.9396 9.311 10.2361 10.0704 10.1816L14.0815 9.91117L19.6103 18.3599V10.8859L18.2007 10.7241C18.0925 10.1277 18.5255 9.69459 19.0676 9.64089L22.8086 9.42311ZM2.31885 1.30031L17.7672 0.162643C19.6643 -6.06179e-05 20.1524 0.108938 21.3448 0.975066L26.2761 4.44106C27.0898 5.03707 27.361 5.19933 27.361 5.84905V24.8585C27.361 26.0499 26.927 26.7545 25.4096 26.8623L7.46942 27.9456C6.33038 27.9999 5.78829 27.8376 5.19178 27.079L1.5603 22.3673C0.909645 21.5 0.639038 20.8511 0.639038 20.092V3.1951C0.639038 2.22085 1.07317 1.40816 2.31885 1.30031Z"
                            fill="black"
                          ></path>
                        </g>
                        <defs>
                          <clipPath
                            id="svg27d27574-svg156df314-clip0_7081_7497"
                          >
                            <rect width="28" height="28" fill="white"></rect>
                          </clipPath>
                        </defs>
                      </svg>
