<?xml version="1.0" encoding="UTF-8"?>
<svg
                        xmlns="http://www.w3.org/2000/svg"
                        width="170"
                        height="24"
                        viewBox="0 0 170 24"
                        fill="none"
                        class="fade-in"
                      >
                        <g
                          clip-path="url(#svg4c0fe3d0-svg7e808a6a-clip0_478_82580)"
                        >
                          <path
                            d="M45.2687 17.6425C45.6934 17.8134 46.3229 17.9234 47.1572 17.9741V18.3312H37.742V17.9741C38.5745 17.9234 39.2057 17.8134 39.6304 17.6425C40.0551 17.4733 40.3496 17.2008 40.5103 16.8252C40.6711 16.4512 40.7523 15.8979 40.7523 15.1668V3.78536H40.6762L34.2206 18.6628H34.1444L27.2286 3.83782H27.1524V15.1668C27.1524 15.8979 27.237 16.4512 27.4079 16.8252C27.5772 17.1991 27.8716 17.4716 28.2879 17.6425C28.7041 17.8134 29.3302 17.9234 30.1628 17.9741V18.3312H22.9796V17.9741C23.8121 17.9234 24.4382 17.8134 24.8545 17.6425C25.2707 17.4733 25.5652 17.2008 25.7344 16.8252C25.9036 16.4512 25.9899 15.8979 25.9899 15.1668V3.75998C25.9899 3.02897 25.9053 2.47563 25.7344 2.10166C25.5635 1.7277 25.2707 1.45526 24.8545 1.28435C24.4365 1.11513 23.8121 1.00345 22.9796 0.952687V0.595641H29.4233L35.3086 13.4442L41.0163 0.595641H47.1572V0.952687C46.3229 1.00345 45.6934 1.11513 45.2687 1.28435C44.844 1.45526 44.5461 1.73108 44.3752 2.11351C44.2043 2.49594 44.1197 3.0442 44.1197 3.75998V15.1668C44.1197 15.8979 44.2043 16.4512 44.3752 16.8252C44.5461 17.2008 44.844 17.4716 45.2687 17.6425ZM58.0614 9.04291C58.5877 10.0125 58.8517 11.109 58.8517 12.3342C58.8517 13.5593 58.5877 14.6558 58.0614 15.6254C57.5335 16.595 56.7991 17.3447 55.8549 17.8709C54.9106 18.3989 53.8344 18.6628 52.6262 18.6628C51.418 18.6628 50.3469 18.3989 49.4111 17.8709C48.4753 17.3447 47.7393 16.595 47.2045 15.6254C46.6681 14.6558 46.4008 13.5593 46.4008 12.3342C46.4008 11.109 46.6681 10.0125 47.2045 9.04291C47.7409 8.0733 48.4753 7.32537 49.4111 6.79741C50.3469 6.26946 51.418 6.00548 52.6262 6.00548C53.8344 6.00548 54.9106 6.26946 55.8549 6.79741C56.7991 7.32537 57.5335 8.0733 58.0614 9.04291ZM55.5097 12.3342C55.5097 11.126 55.3946 10.0887 55.1645 9.22059C54.9343 8.35251 54.6027 7.69426 54.1695 7.24245C53.7363 6.79234 53.2202 6.56559 52.6262 6.56559C52.0306 6.56559 51.5162 6.79064 51.083 7.24245C50.6498 7.69426 50.3181 8.35251 50.088 9.22059C49.8578 10.0887 49.7428 11.126 49.7428 12.3342C49.7428 13.5424 49.8578 14.5797 50.088 15.4477C50.3181 16.3158 50.6498 16.9741 51.083 17.4259C51.5162 17.8777 52.0306 18.1027 52.6262 18.1027C53.2219 18.1027 53.7363 17.8777 54.1695 17.4259C54.6027 16.9758 54.9343 16.3158 55.1645 15.4477C55.3946 14.5797 55.5097 13.5424 55.5097 12.3342ZM67.5037 8.73663C67.9454 8.73663 68.3464 8.81278 68.7034 8.96676V6.15947C68.4818 6.05794 68.2195 6.00717 67.9132 6.00717C67.1297 6.00717 66.4376 6.35237 65.8335 7.04108C65.2294 7.72979 64.759 8.52172 64.3224 10.0988H64.2649V6.1087H64.1634L59.1106 7.56396V7.89562C59.6893 7.89562 60.136 7.95147 60.4508 8.06146C60.7655 8.17145 60.9906 8.35082 61.1276 8.59787C61.263 8.84493 61.3324 9.17997 61.3324 9.6064V15.9351C61.3324 16.463 61.2816 16.8539 61.1801 17.1094C61.0786 17.365 60.8907 17.5562 60.6183 17.6831C60.3459 17.81 59.9127 17.9081 59.317 17.9758V18.3329H66.4106V17.9758C65.8149 17.9251 65.3682 17.8354 65.0704 17.7085C64.7726 17.5816 64.5644 17.3853 64.446 17.1213C64.3275 16.8573 64.2666 16.4613 64.2666 15.9351V10.9195C64.8013 9.66224 65.9791 8.73663 67.5037 8.73663ZM104.74 17.0942C104.638 16.8302 104.587 16.436 104.587 15.908V10.0887C104.587 7.35582 103.075 6.00548 101.091 6.00548C99.1082 6.00548 97.834 7.40997 97.2891 8.15791H97.2384V6.1087H97.1368L92.084 7.56396V7.89562C92.6458 7.89562 93.0875 7.95147 93.4107 8.06146C93.7339 8.17145 93.964 8.34574 94.0994 8.58433C94.2348 8.82293 94.3041 9.15459 94.3041 9.57932V15.9063C94.3041 16.4343 94.2534 16.8302 94.1519 17.0925C94.0503 17.3565 93.8625 17.5511 93.5901 17.6797C93.3176 17.8066 92.8844 17.9048 92.2888 17.9724V18.3295H98.9237V17.9724C98.4652 17.9048 98.1115 17.8066 97.8645 17.6797C97.6174 17.5528 97.4516 17.3565 97.367 17.0925C97.2824 16.8285 97.2401 16.4343 97.2401 15.9063V9.08521C97.8272 8.37281 98.5176 7.68918 99.6395 7.68918C101.181 7.68918 101.655 8.8517 101.655 10.1648V15.9063C101.655 16.4343 101.608 16.8302 101.514 17.0925C101.421 17.3565 101.259 17.5511 101.029 17.6797C100.799 17.8066 100.447 17.9048 99.9695 17.9724V18.3295H106.528V17.9724C105.967 17.9048 105.554 17.8066 105.291 17.6797C105.024 17.5528 104.843 17.3582 104.74 17.0942ZM169.216 14.8098C168.653 16.04 167.081 18.6628 163.882 18.6628C160.845 18.6628 158.32 16.1788 158.32 12.4374C158.32 11.263 158.576 10.1834 159.085 9.1969C159.596 8.21037 160.288 7.43197 161.165 6.86171C162.041 6.29146 163.006 6.00717 164.062 6.00717C167.126 6.00717 168.654 8.16637 168.654 10.4169V10.9246H161.051C161.051 10.9703 161.05 11.0143 161.05 11.06C161.05 13.7674 162.255 16.3683 165.285 16.3683C167.59 16.3683 168.554 15.0924 168.934 14.6338L169.216 14.8098ZM161.104 10.0633H165.872C165.84 8.21375 165.289 6.59943 163.781 6.59266C162.366 6.58758 161.341 7.90747 161.104 10.0633ZM135.371 17.0942C135.27 16.8302 135.219 16.436 135.219 15.908V10.0887C135.219 9.20366 135.07 8.45573 134.772 7.84317C134.474 7.2306 134.061 6.77203 133.535 6.46575C133.007 6.15947 132.403 6.00717 131.723 6.00717C130.939 6.00717 130.247 6.20685 129.643 6.6062C129.039 7.00555 128.465 7.58088 127.921 8.32882H127.87V0H127.768L122.716 1.45526V1.78692C123.277 1.78692 123.719 1.84276 124.042 1.95275C124.365 2.06274 124.596 2.23704 124.731 2.47563C124.866 2.71423 124.936 3.04589 124.936 3.47062V15.9063C124.936 16.4343 124.885 16.8302 124.783 17.0925C124.682 17.3565 124.494 17.5511 124.222 17.6797C123.949 17.8066 123.516 17.9048 122.92 17.9724V18.3295H129.555V17.9724C129.097 17.9048 128.743 17.8066 128.496 17.6797C128.249 17.5528 128.083 17.3565 127.998 17.0925C127.914 16.8285 127.872 16.4343 127.872 15.9063V9.08521C128.459 8.37281 129.149 7.68918 130.271 7.68918C130.901 7.68918 131.393 7.89732 131.752 8.31359C132.109 8.72986 132.288 9.3475 132.288 10.1631V15.9063C132.288 16.4343 132.241 16.8302 132.148 17.0925C132.055 17.3565 131.892 17.5511 131.662 17.6797C131.432 17.8066 131.08 17.9048 130.603 17.9724V18.3295H137.162V17.9724C136.6 17.9048 136.187 17.8066 135.925 17.6797C135.655 17.5528 135.474 17.3582 135.371 17.0942ZM116.837 17.2296C113.074 17.255 110.089 14.2294 110.089 9.32042C110.089 4.13226 112.869 1.10667 116.048 1.10667C119.228 1.10667 120.592 3.9715 121.287 6.78557L121.797 6.77711V1.59909C120.602 0.937457 118.643 0.191214 115.795 0.191214C110.302 0.191214 106.156 4.2101 106.156 9.57594C106.156 14.688 109.615 18.7305 115.566 18.7052C118.847 18.6798 121.135 16.7219 122.228 15.221L121.873 14.8403C121.135 15.6796 119.659 17.2042 116.837 17.2296ZM154.723 11.2376L152.963 10.3949C151.794 9.87207 151.125 9.17998 151.125 8.32882C151.125 7.36429 152.009 6.70434 153.244 6.70434C155.043 6.70434 155.975 7.69933 156.361 9.91099H156.892V6.69588C156.364 6.49113 154.97 6.00717 153.55 6.00717C150.743 6.00717 149.034 7.7721 149.034 9.80946C149.034 10.5929 149.242 11.2766 149.658 11.8637C150.074 12.4509 150.701 12.9569 151.533 13.3816L153.371 14.3005C154.628 14.8741 155.132 15.4393 155.132 16.2904C155.132 17.2313 154.374 17.9674 152.938 17.9674C150.838 17.9674 149.839 15.9757 149.565 14.3766H149.034V17.6679C149.834 18.1857 151.34 18.6628 152.734 18.6628C155.425 18.6628 157.302 17.0147 157.302 14.6829C157.3 13.0026 156.403 11.9517 154.723 11.2376ZM15.2345 10.5997V15.1668C15.2345 15.8809 15.3361 16.4292 15.5408 16.8133C15.7456 17.1957 16.0857 17.4733 16.5612 17.6425C17.0367 17.8134 17.7609 17.9234 18.7305 17.9741V18.3312H8.85508V17.9741C9.68762 17.9234 10.3137 17.8134 10.73 17.6425C11.1463 17.4733 11.4407 17.2008 11.6099 16.8252C11.7791 16.4512 11.8654 15.8979 11.8654 15.1668V3.83782C11.8654 1.50433 10.8112 1.03053 9.21043 1.03053C7.45397 1.03053 6.37945 1.50264 6.37945 3.76167V16.4377C6.37945 19.3025 4.51807 22.0269 0.842696 22.0269C0.558413 22.0269 0.277514 22.0099 0 21.9778V21.6715C0.873155 21.6191 1.58048 21.3229 2.11859 20.7764C2.71423 20.1723 3.01205 19.1823 3.01205 17.8032V3.75998C3.01205 3.04589 2.92744 2.49594 2.75653 2.11351C2.58562 1.73108 2.2878 1.45526 1.86307 1.28435C1.43834 1.11513 0.817314 1.00345 0 0.952687V0.595641H17.4377C21.4041 0.595641 23.8595 2.57885 23.8595 5.57229C23.8595 8.99891 20.4938 10.5997 17.4851 10.5997H15.2345ZM15.2345 9.91437H16.4512C18.5207 9.91437 20.2619 8.70279 20.2619 5.59767C20.2619 1.80215 17.7558 1.28097 16.5138 1.28097H15.2345V9.91437ZM91.0552 17.3125C91.4765 17.3125 91.8471 17.1281 92.0823 16.969V17.5748C91.6119 18.0147 90.7388 18.6544 89.4256 18.6544C88.319 18.6544 87.39 17.9521 87.1429 16.881H87.0769C86.6454 17.6966 85.3272 18.7271 83.8889 18.7271C82.1629 18.7271 80.8921 17.5765 80.8921 15.8268C80.8921 14.4595 81.8278 13.5491 83.3846 12.9975L87.0769 11.6675V9.95329C87.0769 8.39481 85.9499 7.67564 84.7282 7.67564C83.4811 7.67564 82.3304 8.2036 81.1324 9.42534L80.7736 9.09029C81.8278 7.38798 83.5065 5.99702 85.9279 5.99702C88.2293 5.99702 90.0754 7.50812 90.0517 9.95329L90.0044 16.0671C90.001 16.9284 90.3614 17.3125 91.0552 17.3125ZM87.0769 12.4662L85.5912 13.0686C84.4405 13.5238 83.6977 14.0517 83.6977 15.2734C83.6977 16.304 84.4168 17.0231 85.4237 17.0231C85.9516 17.0231 86.7182 16.6153 87.0786 16.1601V12.4662H87.0769ZM147.389 17.3125C147.812 17.3125 148.181 17.1264 148.418 16.969V17.5748C147.947 18.0147 147.074 18.6561 145.759 18.6561C144.653 18.6561 143.724 17.9538 143.477 16.8827H143.411C142.979 17.6983 141.661 18.7288 140.223 18.7288C138.497 18.7288 137.226 17.5782 137.226 15.8285C137.226 14.4612 138.162 13.5508 139.718 12.9992L143.411 11.6691V9.95329C143.411 8.39481 142.284 7.67564 141.062 7.67564C139.815 7.67564 138.664 8.2036 137.466 9.42534L137.106 9.09029C138.16 7.38798 139.839 5.99702 142.26 5.99702C144.561 5.99702 146.407 7.50812 146.384 9.95329L146.336 16.0671C146.335 16.9284 146.693 17.3125 147.389 17.3125ZM143.409 12.4662L141.923 13.0686C140.773 13.5238 140.03 14.0517 140.03 15.2734C140.03 16.304 140.749 17.0231 141.756 17.0231C142.284 17.0231 143.05 16.6153 143.411 16.1601V12.4662H143.409ZM77.8614 6.84479C78.9529 7.69595 79.4351 8.92107 79.4351 9.96683C79.4351 12.7132 77.0881 14.1363 74.4162 14.1363C73.7122 14.1363 73.032 14.0365 72.411 13.8402C72.0658 14.1059 71.7696 14.4527 71.7696 14.8589C71.7696 15.732 73.1927 15.908 74.0422 15.9571L76.9392 16.1568C79.2608 16.3074 80.733 17.1297 80.733 19.2026C80.733 21.8238 77.633 23.9965 73.1183 23.9965C70.4971 23.9965 68.6239 23.098 68.6239 21.4989C68.6239 20.1096 69.3888 19.3143 71.3551 18.3701C70.069 17.9961 69.7712 17.2296 69.7712 16.48C69.7712 15.4545 70.6867 14.534 71.927 13.6608C70.4413 13.0347 69.3972 11.7944 69.3972 9.96345C69.3972 7.21707 71.7443 5.79396 74.4162 5.79396C75.6447 5.79396 76.6228 6.07317 77.3758 6.51144C77.9376 5.38276 79.0459 4.06965 81.0325 4.06965V6.41329C79.9715 6.08501 78.677 6.25592 77.8614 6.84479ZM70.7205 20.4041C70.7205 21.8526 72.3687 22.5007 74.516 22.5007C76.5635 22.5007 79.3336 21.5767 79.3336 20.1029C79.3336 19.2534 78.8598 19.0537 77.611 18.9539L72.5937 18.5816C72.2993 18.5596 72.0336 18.5258 71.795 18.4801C71.0725 19.0436 70.7205 19.6223 70.7205 20.4041ZM76.3385 9.96852C76.3385 7.62149 75.5652 6.4979 74.4162 6.4979C73.2672 6.4979 72.4939 7.62149 72.4939 9.96852C72.4939 12.3155 73.2672 13.4391 74.4162 13.4391C75.5652 13.4391 76.3385 12.3155 76.3385 9.96852Z"
                            fill="black"
                          ></path>
                        </g>
                        <defs>
                          <clipPath
                            id="svg4c0fe3d0-svg7e808a6a-clip0_478_82580"
                          >
                            <rect
                              width="169.216"
                              height="23.9999"
                              fill="white"
                            ></rect>
                          </clipPath>
                        </defs>
                      </svg>
