<?xml version="1.0" encoding="UTF-8"?>
<svg
                        xmlns="http://www.w3.org/2000/svg"
                        xmlns:xlink="http://www.w3.org/1999/xlink"
                        fill="none"
                        height="45"
                        viewBox="0 0 150 45"
                        width="150"
                        class="fade-in"
                      >
                        <clipPath id="svg36e6ee3d-a">
                          <path d="m0 0h150v44.7222h-150z"></path>
                        </clipPath>
                        <mask
                          id="svg36e6ee3d-b"
                          height="45"
                          maskUnits="userSpaceOnUse"
                          width="150"
                          x="0"
                          y="0"
                        >
                          <path d="m150 0h-150v44.64h150z" fill="#fff"></path>
                        </mask>
                        <g clip-path="url(#svg36e6ee3d-a)">
                          <g fill="#00084d" mask="url(#svg36e6ee3d-b)">
                            <path
                              d="m120.633 37.4104h-90.633l7.2289 7.2289zm14.548-4.6085v-14.4577c0-2.7109 1.897-4.97 4.608-4.97s4.608 2.2591 4.608 4.97v14.4577h5.603v-14.4577c0-5.9639-4.067-10.75309-10.031-10.75309-2.71 0-4.788 1.53614-4.788 1.53614v-.99397h-5.603v24.57822h5.603zm-18.524-25.30115c-6.506 0-11.115 5.69275-11.115 12.92175 0 7.5903 5.783 12.9217 11.657 12.9217 2.982 0 6.687-.9941 9.849-5.5121l-4.97-2.8915c-3.795 5.6023-10.21 2.8011-10.933-2.8917h16.084c1.446-8.6747-4.247-14.54815-10.572-14.54815zm4.879 9.75895h-10.03c1.175-5.6927 8.946-6.0541 10.03 0z"
                            ></path>
                            <path
                              d="m103.735 26.9285c-.542.3615-1.175.6325-1.898.6325-.903 0-2.62-.7228-2.62-2.982v-10.5722h4.789v-5.87349h-4.789v-6.14459h-5.6025v6.14459h-2.982v5.87349h2.982v10.5722c0 5.5121 4.1566 8.7652 8.3135 8.7652 1.536 0 3.705-.5423 5.421-1.5361zm-20.6025-18.79519v14.45779c0 2.7108-1.8975 4.9699-4.6083 4.9699-2.711 0-4.6085-2.2591-4.6085-4.9699v-14.45779h-5.6025v14.45779c0 5.9639 4.0664 10.7531 10.0302 10.7531 2.7108 0 4.7891-1.5361 4.7891-1.5361v.9036h5.6025v-24.57839z"
                            ></path>
                            <path
                              d="m57.8315 19.6996 9.5783-11.56632h-7.7711l-6.7771 8.58432v-16.71685399h-5.6928v32.80115399h5.6928v-10.1204l8.3132 10.1204h7.7711zm-19.4278-11.56632v1.08433c-1.7168-1.08433-3.1626-1.71686-5.241-1.71686-6.3252 0-11.2047 5.78315-11.2047 12.92175 0 7.1385 4.7892 12.9217 11.2047 12.9217 2.0784 0 3.6145-.6327 5.241-1.717v1.0843h5.6025v-24.57822zm-5.3312 19.33732c-3.1627 0-5.4217-3.0723-5.4217-6.9578 0-3.8856 2.259-6.9578 5.4217-6.9578 3.1626 0 5.3312 3.0722 5.3312 6.9578.0904 3.8855-2.1686 6.9578-5.3312 6.9578z"
                            ></path>
                            <path
                              d="m5.8735 32.8019v-9.5783h4.06626l7.13854 9.4881h7.3193l-8.6747-11.476c2.7109-1.8975 4.4277-5.0603 4.4277-8.6747 0-5.87347-4.7892-10.57228-10.57228-10.57228h-9.57832v30.72298h5.8735zm0-24.93968h3.79518c2.62052 0 4.78912 2.16868 4.78912 4.78918 0 2.6204-2.1686 4.7892-4.78912 4.7892h-3.79518z"
                            ></path>
                          </g>
                        </g>
                      </svg>
