<?xml version="1.0" encoding="UTF-8"?>
<svg
                        xmlns="http://www.w3.org/2000/svg"
                        width="104"
                        height="28"
                        viewBox="0 0 104 28"
                        fill="none"
                        class="fade-in"
                      >
                        <g
                          clip-path="url(#svg3544a556-svg14f8a89c-svgeccb7ff5-clip0_7043_62636)"
                        >
                          <path
                            d="M11.458 0.29895H0V27.701L11.458 0.29895Z"
                            fill="black"
                          ></path>
                          <path
                            d="M19.5197 0.29895H30.9627V27.701L19.5197 0.29895Z"
                            fill="black"
                          ></path>
                          <path
                            d="M15.4888 10.3984L22.7816 27.701H17.9968L15.8172 22.1923H10.4801L15.4888 10.3984Z"
                            fill="black"
                          ></path>
                          <path
                            d="M49.6554 17.725L51.0065 21.5991C51.0513 21.6961 51.1184 21.7409 51.2379 21.7409H53.8355C53.9773 21.7409 53.9997 21.6737 53.9773 21.5319L48.6104 6.62535C48.588 6.50591 48.5656 6.48352 48.4462 6.48352H45.2215C45.1319 6.48352 45.0797 6.5507 45.0797 6.64774C45.0349 7.43151 44.9677 7.67037 44.8707 7.90177L40.0859 21.5095C40.0636 21.6737 40.1158 21.7409 40.2502 21.7409H42.5716C42.7134 21.7409 42.7806 21.6961 42.8329 21.5543L44.1093 17.725H49.6554ZM44.8483 15.1946C45.5499 13.0747 46.4755 10.3576 46.8488 8.80497H46.8712C47.334 10.4322 48.4238 13.6569 48.9164 15.1946H44.8483Z"
                            fill="black"
                          ></path>
                          <path
                            d="M60.877 21.9724C62.2729 21.9724 63.7583 21.7186 65.2661 21.0692C65.3856 21.0244 65.408 20.9721 65.408 20.8602C65.3632 20.4422 65.3109 19.8375 65.3109 19.3747V5.34151C65.3109 5.25194 65.3109 5.20715 65.199 5.20715H62.6685C62.5715 5.20715 62.5267 5.25194 62.5267 5.37137V10.1262C62.1311 10.0815 61.8549 10.0591 61.5264 10.0591C57.4434 10.0591 54.9353 12.7537 54.9353 16.1202C54.9353 20.0241 57.5105 21.9724 60.877 21.9724ZM62.5267 19.3747C62.1087 19.5091 61.6459 19.5613 61.1756 19.5613C59.3244 19.5613 57.8091 18.5163 57.8091 15.9784C57.8091 13.7316 59.3692 12.4029 61.4369 12.4029C61.8549 12.4029 62.2206 12.4477 62.5267 12.5671V19.3747Z"
                            fill="black"
                          ></path>
                          <path
                            d="M73.4804 10.059C69.9945 10.059 67.8373 12.7313 67.8373 16.0306C67.8373 18.9791 69.5541 21.9723 73.4282 21.9723C76.7051 21.9723 79.0041 19.5613 79.0041 15.956C79.0041 12.7761 77.0559 10.059 73.4804 10.059ZM73.3386 12.4029C75.3092 12.4029 76.1452 14.0973 76.1452 16.0306C76.1452 18.4192 74.9136 19.6061 73.4804 19.6061C71.7113 19.6061 70.6663 18.1207 70.6663 15.9784C70.6663 13.7763 71.7785 12.4029 73.3386 12.4029Z"
                            fill="black"
                          ></path>
                          <path
                            d="M81.6205 5.20715C81.5235 5.20715 81.4563 5.25194 81.4563 5.37137V21.2558C81.4563 21.323 81.5235 21.4424 81.6205 21.4648C82.7327 21.8081 83.8972 21.9724 85.099 21.9724C88.5401 21.9724 91.8842 19.8375 91.8842 15.538C91.8842 12.4253 89.7493 10.0591 86.4052 10.0591C85.6364 10.0591 84.9198 10.1785 84.2928 10.3875L84.2629 5.39376C84.2629 5.22955 84.2182 5.20715 84.0539 5.20715H81.6205ZM89.0253 15.8216C89.0253 18.3969 87.2637 19.6061 85.3602 19.6061C84.9646 19.6061 84.6138 19.5837 84.2928 19.4867V12.709C84.6586 12.5671 85.099 12.4477 85.9126 12.4477C87.7489 12.4477 89.0253 13.6122 89.0253 15.8216Z"
                            fill="black"
                          ></path>
                          <path
                            d="M101.328 16.6576C102.462 16.6576 103.395 16.6352 103.716 16.5606C103.836 16.5382 103.881 16.4934 103.903 16.3964C103.97 16.1426 104 15.6126 104 14.9632C104 12.7537 102.671 10.059 99.2377 10.059C95.7294 10.059 93.7811 12.9179 93.7811 16.1426C93.7811 19.0015 95.289 21.9723 99.5138 21.9723C101.096 21.9723 102.119 21.7185 103 21.3005C103.089 21.2557 103.134 21.1811 103.134 21.0467V19.1134C103.134 19.0015 103.067 18.9791 103 19.0239C102.119 19.3971 101.163 19.5837 100.118 19.5837C97.7522 19.5837 96.6773 18.2774 96.6102 16.6576H101.328ZM96.6102 14.6571C96.7968 13.5225 97.5134 12.2909 99.1182 12.2909C100.887 12.2909 101.35 13.7763 101.35 14.4481C101.35 14.4705 101.35 14.5676 101.35 14.6347C101.253 14.6571 100.954 14.6571 100.074 14.6571H96.6102Z"
                            fill="black"
                          ></path>
                        </g>
                        <defs>
                          <clipPath
                            id="svg3544a556-svg14f8a89c-svgeccb7ff5-clip0_7043_62636"
                          >
                            <rect
                              width="104"
                              height="27.4021"
                              fill="white"
                              transform="translate(0 0.29895)"
                            ></rect>
                          </clipPath>
                        </defs>
                      </svg>
