<?xml version="1.0" encoding="UTF-8"?>
<svg
                        xmlns="http://www.w3.org/2000/svg"
                        width="75"
                        height="55"
                        viewBox="0 0 75 55"
                        fill="none"
                        class="fade-in"
                      >
                        <path
                          d="M53.2591 42.7673H53.9317C54.1095 42.7673 54.1859 42.7798 54.1859 43.0465V51.4834C54.1859 51.9533 52.7902 52.4352 51.8129 52.4352C49.7699 52.4352 48.4251 51.2427 48.4251 48.7818C48.4251 47.1324 49.4913 45.1403 51.5722 45.1403C52.1934 45.1403 52.5999 45.2927 53.0184 45.5214V43.0849C53.0179 42.8432 53.0309 42.7673 53.2591 42.7673ZM40.507 45.1014C41.1287 45.1014 41.7634 45.2537 42.2448 45.5963C43.0318 46.1416 43.5392 47.1693 43.5392 48.7808C43.5392 50.3793 43.0318 51.4065 42.2448 51.9528C41.7759 52.27 41.1412 52.4347 40.507 52.4347C39.8977 52.4347 39.2506 52.2824 38.7816 51.9528C38.0071 51.4065 37.4997 50.3798 37.4997 48.7808C37.4997 47.1693 38.0071 46.1416 38.7816 45.5963C39.2765 45.2792 39.9107 45.1014 40.507 45.1014ZM24.1394 45.1014C24.7736 45.1014 25.4203 45.2537 25.8897 45.5963C26.6638 46.1416 27.1841 47.1693 27.1841 48.7808C27.1841 50.3793 26.6638 51.4065 25.8897 51.9528C25.3953 52.27 24.7736 52.4347 24.1394 52.4347C23.5302 52.4347 22.8705 52.2824 22.4011 51.9528C21.627 51.4065 21.1197 50.3798 21.1197 48.7808C21.1197 47.1693 21.627 46.1416 22.4011 45.5963C22.896 45.2792 23.5302 45.1014 24.1394 45.1014ZM11.9331 45.1014C12.5674 45.1014 13.1761 45.2537 13.671 45.5963C14.445 46.1416 14.9654 47.1693 14.9654 48.7808C14.9654 50.3793 14.445 51.4065 13.671 51.9528C13.1761 52.27 12.5674 52.4347 11.9331 52.4347C11.3109 52.4347 10.6642 52.2824 10.1948 51.9528C9.4078 51.4065 8.90043 50.3798 8.90043 48.7808C8.90043 47.1693 9.4078 46.1416 10.1948 45.5963C10.6772 45.2792 11.3239 45.1014 11.9331 45.1014ZM55.9996 45.2917H56.6973C56.9005 45.2917 56.9515 45.3296 56.9515 45.5329V51.9908C56.9515 52.219 56.9005 52.219 56.6973 52.2315H55.9742C55.7714 52.2315 55.7714 52.1806 55.7714 51.9908V45.5329C55.7714 45.3681 55.7714 45.2917 55.9996 45.2917ZM67.7749 45.2537H68.3962C68.5735 45.2537 68.6374 45.2917 68.6374 45.406C68.6374 45.4824 68.6244 45.5458 68.5735 45.6727C68.0027 46.8018 67.0763 47.842 66.1749 48.5012L66.2004 48.5276L68.7383 51.9024C68.7892 51.9533 68.8396 52.0163 68.8396 52.0667C68.8396 52.2195 68.7008 52.2195 68.6374 52.232H67.7365C67.5198 52.232 67.4693 52.232 67.33 52.0287L64.9455 48.604C64.9455 48.5786 64.933 48.5406 64.933 48.5281C64.933 48.5281 64.9455 48.4892 64.9839 48.4512C65.9857 47.8679 66.9754 46.625 67.356 45.4699C67.4314 45.2412 67.5203 45.2537 67.7749 45.2537ZM15.3464 45.2537H16.1714C16.3741 45.2537 16.3996 45.2792 16.4755 45.4694L18.2647 50.5701L20.0161 45.444C20.0795 45.3171 20.092 45.2792 20.1809 45.2537H20.841C20.9045 45.2537 21.0183 45.2537 21.0183 45.393C21.0183 45.431 21.0183 45.444 20.9804 45.5963L18.6333 52.0158C18.5699 52.206 18.5444 52.2315 18.3791 52.2315H17.8588C17.7444 52.2315 17.7194 52.1806 17.643 52.0158L15.2195 45.6212C15.1879 45.5625 15.1705 45.4972 15.1686 45.4305C15.1686 45.2537 15.2955 45.2537 15.3464 45.2537ZM60.5545 45.1398C61.4808 45.1398 62.3562 45.4315 62.3562 45.9518C62.3562 46.3069 62.0651 46.4207 61.8613 46.4207C61.4553 46.4207 61.2526 45.9134 60.4781 45.9134C59.7175 45.9134 59.324 46.4207 59.324 46.9281C59.324 48.4377 62.6099 48.0702 62.6099 50.3414C62.6099 51.7875 61.3664 52.4342 60.148 52.4218C59.0693 52.4218 57.9917 51.9528 57.9917 51.3935C57.9917 51.051 58.2828 50.9496 58.499 50.9496C58.9555 50.9496 59.2216 51.6477 60.1739 51.6477C61.1128 51.6477 61.5442 51.0255 61.5442 50.4677C61.5442 49.7571 60.8341 49.4525 60.0596 49.1229C59.0698 48.7044 58.2578 48.2095 58.2578 47.055C58.2578 45.812 59.35 45.1398 60.5545 45.1398ZM46.5724 45.1014C47.5112 45.1014 48.3232 45.3041 48.3232 45.799C48.3232 46.205 48.0695 46.4078 47.7395 46.3948C47.2705 46.3948 47.1437 45.7606 46.2933 45.7606C45.8873 45.7606 45.6081 46.0013 45.6081 46.3693V51.9773C45.6081 52.1801 45.5322 52.193 45.3674 52.193H44.6948C44.492 52.193 44.4156 52.1806 44.4156 51.9773V45.8495C44.4156 45.6337 44.5804 45.418 45.0498 45.3036C45.4049 45.2158 45.8493 45.1014 46.5724 45.1014ZM40.507 45.8884C40.063 45.8884 39.7205 45.9898 39.3649 46.3324C38.9974 46.6879 38.7307 47.5124 38.7307 48.7813C38.7307 50.0627 38.9969 50.8617 39.3649 51.2173C39.7205 51.5593 40.0381 51.6487 40.507 51.6487C40.9894 51.6487 41.3315 51.5588 41.687 51.2173C42.0675 50.8617 42.3082 50.0367 42.3082 48.7813C42.3082 47.4869 42.0675 46.6879 41.687 46.3324C41.332 45.9898 40.9894 45.8884 40.507 45.8884ZM33.7569 45.1014C36.4216 45.1014 36.4471 46.5096 36.4471 47.3216V51.9523C36.4471 52.0787 36.4471 52.206 36.3202 52.2315H35.5841C35.3559 52.2315 35.2795 52.206 35.2795 51.9523V47.4734C35.2795 46.8387 35.2795 45.824 33.719 45.824C32.7931 45.824 32.2852 46.1411 32.2852 46.4327V51.9523C32.2852 52.206 32.1969 52.2315 32.0061 52.2315H31.3464C31.1307 52.2315 31.0803 52.206 31.0803 51.9778V45.9893C31.0803 45.7486 31.2326 45.5833 31.689 45.431C32.057 45.3171 32.7422 45.1014 33.7569 45.1014ZM24.1649 45.8884C23.6955 45.8884 23.3399 45.9898 22.9849 46.3324C22.6168 46.6879 22.3631 47.5124 22.3631 48.7813C22.3631 50.0627 22.6168 50.8617 22.9849 51.2173C23.3654 51.5593 23.6955 51.6487 24.1649 51.6487C24.6218 51.6487 24.9639 51.5588 25.3194 51.2173C25.7005 50.8617 25.9541 50.0367 25.9541 48.7813C25.9541 47.4869 25.7005 46.6879 25.3194 46.3324C24.9639 45.9898 24.6468 45.8884 24.1649 45.8884ZM11.9331 45.8884C11.4762 45.8884 11.1336 45.9898 10.7781 46.3324C10.3971 46.6879 10.1434 47.5124 10.1434 48.7813C10.1434 50.0627 10.3971 50.8617 10.7781 51.2173C11.1331 51.5593 11.4632 51.6487 11.9331 51.6487C12.4026 51.6487 12.7446 51.5588 13.1002 51.2173C13.4812 50.8617 13.7224 50.0367 13.7224 48.7813C13.7224 47.4869 13.4687 46.6879 13.1002 46.3324C12.7322 45.9898 12.4026 45.8884 11.9331 45.8884ZM5.17009 45.1014C7.86023 45.1014 7.87322 46.5096 7.87322 47.3216V51.9523C7.87322 52.0787 7.86073 52.206 7.73389 52.2315H6.98482C6.75661 52.2315 6.6807 52.206 6.6807 51.9523V47.4734C6.6807 46.8387 6.6807 45.824 5.11965 45.824C4.18082 45.824 3.67346 46.1411 3.67346 46.4327V51.9523C3.67346 52.206 3.58507 52.2315 3.39481 52.2315H2.72215C2.53188 52.2315 2.48145 52.206 2.48145 51.9778V45.9893C2.48145 45.7486 2.63376 45.5833 3.0777 45.431C3.47021 45.3171 4.14237 45.1014 5.17009 45.1014ZM51.7619 45.9643C50.531 45.9643 49.6431 47.056 49.6431 48.6924C49.6431 50.5571 50.5564 51.6362 51.8508 51.6362C52.4471 51.6362 53.0184 51.445 53.0184 51.1034H53.0309V46.3958C52.7642 46.18 52.4471 45.9643 51.7619 45.9643ZM63.8029 42.7418H64.5135C64.6658 42.7418 64.7542 42.7418 64.7542 42.9446V52.0282C64.7542 52.219 64.6783 52.219 64.5135 52.219H63.8029C63.6261 52.219 63.5877 52.1935 63.5877 52.0163V42.9701C63.5877 42.7673 63.6641 42.7418 63.8029 42.7418ZM56.3927 42.6659C56.7482 42.6659 57.0658 42.9321 57.0908 43.3381C57.1033 43.7191 56.8241 44.0747 56.3672 44.0872C55.9232 44.0872 55.6571 43.7696 55.6571 43.389C55.6571 42.9825 55.9617 42.6659 56.3927 42.6659ZM70.3877 39.379C71.5557 39.379 72.52 40.3558 72.52 41.5358C72.52 42.7159 71.5812 43.6927 70.3877 43.6927C69.2087 43.6927 68.2564 42.7413 68.2564 41.5358C68.2569 40.3433 69.2087 39.379 70.3877 39.379ZM70.3877 39.7601C69.3859 39.7601 68.6114 40.5431 68.6114 41.5363C68.6114 42.5261 69.3984 43.3506 70.3877 43.3506C71.3774 43.3506 72.1775 42.5266 72.1775 41.5363C72.1775 40.5466 71.365 39.7601 70.3877 39.7601ZM69.4748 40.3943H70.2988C71.2331 40.3943 71.2636 40.8807 71.2636 41.029C71.2636 41.3506 71.0304 41.6512 70.6424 41.6757C70.8182 41.7666 70.9974 42.0187 71.1367 42.247L71.4159 42.7039H70.972L70.7692 42.3483C70.502 41.8405 70.3877 41.7266 70.0841 41.7266H69.8678V42.7164H69.4748V40.3943ZM69.8429 40.7114V41.409H70.2993C70.4641 41.409 70.8326 41.409 70.8326 41.0664C70.8326 40.7109 70.4766 40.7109 70.2608 40.7109L69.8429 40.7114ZM17.5796 9.61469C17.694 9.6022 17.8333 9.767 17.9476 10.0841C18.1759 10.7053 19.1781 13.2177 21.7794 14.144C24.3551 15.0699 26.6767 14.3213 28.3012 12.964C28.91 12.4816 29.1127 12.7613 28.5674 13.6492C27.8443 14.8292 26.6767 15.5013 25.3319 16.2379C25.0658 16.3902 24.7487 16.5171 25.3699 16.8087C28.9609 18.4836 33.6431 19.6636 37.8044 19.6636C40.9 19.6636 43.8948 19.1817 45.4808 19.0674C47.0034 18.953 49.9093 19.0549 50.6069 22.4047C51.1018 24.7773 51.0638 31.7166 51.0383 38.3528C51.0383 38.8217 51.0763 39.1014 50.5435 39.1014C48.8181 39.0889 48.7547 39.1648 48.6024 39.5963C48.3482 40.3064 48.2848 40.6619 48.0945 41.3975C47.9417 42.0068 47.8279 42.222 47.4219 42.222H45.29C44.9469 42.222 44.7821 41.8285 45.0613 41.2961C47.8149 36.3478 47.5991 32.5036 45.9876 30.3977C45.4798 32.3513 45.2645 33.2142 45.0104 33.4045C41.6865 35.9164 39.9991 41.2582 39.8593 41.6892C39.707 42.0827 39.5037 42.235 38.9839 42.235H36.6233C35.9382 42.235 35.9766 41.7526 36.3826 41.2837C40.075 37.3376 41.0139 35.8659 42.092 32.5161C43.1836 29.1543 40.6328 28.0881 38.6793 29.8399C33.6036 27.5303 32.2588 30.5501 32.5634 32.2375C33.0328 34.9146 34.8346 39.4569 34.9489 41.6008C34.9869 42.1466 34.5175 42.2604 34.2253 42.2604H31.9791C31.2815 42.2604 31.5607 41.5878 31.6116 41.2837C32.7537 35.764 30.4186 32.6175 28.0715 31.1458C26.6757 32.174 24.8236 38.2005 24.5953 41.4864C24.5699 41.8794 24.3541 42.235 24.0241 42.235H21.4108C20.9918 42.235 20.9159 41.7656 21.2335 41.1948C22.5779 38.7708 24.6847 34.978 24.6463 30.9555C24.6463 30.5116 24.6463 29.1158 23.9991 28.3553C22.5654 26.6414 21.7789 24.561 21.0303 23.2292C20.5229 22.3283 19.8757 22.0237 19.3684 21.9348C18.8225 21.8334 18.4171 21.9857 17.9601 21.77C17.5032 21.5668 17.262 21.0974 16.9069 20.6919C16.6028 20.3488 16.3741 19.8539 16.7297 19.3975C17.3764 18.598 17.7953 18.1286 17.9097 17.799C18.024 17.4689 17.9986 17.3296 18.024 17.0374C18.0365 16.7713 18.5823 16.0991 19.1027 15.5023C19.293 15.2741 19.1282 14.8681 18.7726 14.4746C18.4181 14.0816 17.3893 12.6734 17.3893 10.3258C17.3888 9.85539 17.4782 9.64015 17.5796 9.61469ZM27.1082 18.7498C26.8925 18.7373 26.8036 18.8387 26.6388 19.0539C24.3172 22.2389 23.8348 23.9643 24.038 25.2587C24.2408 26.552 25.3444 27.8464 26.9944 28.8237C28.6438 29.7755 29.6585 30.3208 30.7756 31.5388C30.915 31.6781 31.0668 31.7161 31.1182 31.4499C31.689 27.7196 34.8101 27.1738 38.8835 27.2507C44.6184 27.3396 45.7225 29.2172 46.4326 28.9256C47.1182 28.5955 47.5877 25.6901 47.714 23.6472C47.8533 21.5668 47.9807 19.8919 45.4174 20.0951C46.0266 21.3386 46.1405 22.7088 45.0238 23.4829C43.8948 24.2694 43.0828 23.8889 43.0828 23.1528C43.0828 22.5061 42.9814 21.4654 42.1689 20.5141C41.7759 20.565 41.4588 20.603 41.0653 20.6414C41.306 21.7575 41.5981 23.826 40.7477 24.6629C39.8977 25.5009 37.4868 25.5768 35.0004 25.3865C34.5309 25.3485 33.9472 25.1573 33.6935 24.5615C33.5666 24.2824 33.3759 23.5588 33.3254 20.3877C32.894 20.3243 32.5519 20.2734 32.1205 20.172C31.676 23.2297 30.6488 24.3588 29.5696 24.625C28.4915 24.8916 27.2605 24.6374 27.4887 23.5333C27.6915 22.4681 28.2243 21.2626 28.3262 19.1443C27.6665 18.9021 27.3244 18.7623 27.1082 18.7498ZM44.5674 20.196C44.0725 20.2469 43.6026 20.3103 43.1462 20.3862C43.666 21.1348 43.9582 21.9593 43.9836 23.0629C44.136 23.1263 44.8466 22.8347 45.0114 22.3273C45.1642 21.8075 45.1252 21.2237 44.5674 20.196ZM29.3035 19.4604C29.1507 20.6659 28.8975 22.1505 28.6308 23.0254C28.3517 23.9014 29.1127 23.8254 29.4553 23.6856C29.9122 23.4949 30.7626 22.7208 31.2066 19.9678C30.5676 19.8165 29.933 19.6473 29.3035 19.4604ZM34.2263 20.5131C34.2897 21.4644 34.3022 22.8981 34.455 23.6726C34.5944 24.3448 34.8485 24.3828 35.1022 24.4207C36.0281 24.56 39.2635 24.7004 39.9871 23.9768C40.4316 23.5193 40.4695 21.9338 40.1524 20.7163C38.1979 20.8307 36.1929 20.7798 34.2263 20.5131ZM20.6243 15.6921C20.4595 15.7176 20.3202 15.8065 20.1674 15.9328C19.647 16.4022 19.1017 17.1383 19.0128 17.379C18.8985 17.6202 18.9619 18.2035 18.7332 18.5081C18.5304 18.8002 17.9976 19.5108 17.9976 19.5108C17.5407 20.0816 17.7564 20.1201 18.2513 20.7163C18.6952 21.2741 19.7359 20.5386 20.9414 21.4899C21.5501 21.9723 22.2862 23.7615 22.8196 24.4716C23.2256 21.9218 24.8241 19.8534 25.2935 19.0669C26.0675 17.8494 25.3694 18.141 23.1242 16.7703C21.7284 15.9328 21.0937 15.5907 20.6243 15.6921ZM20.9923 17.3031C21.1826 17.3031 21.3224 17.3286 21.3479 17.392C21.4368 17.6207 20.3581 18.9525 19.7993 18.1405C19.3938 17.5568 20.4216 17.2906 20.9923 17.3031ZM49.0843 25.411C49.0209 25.4235 48.9699 25.4619 48.9699 25.5378C48.8306 27.3645 48.4241 29.5593 48.5639 30.2704C48.6908 31.031 49.1217 32.8592 49.2106 33.6577C49.2865 34.2789 49.5662 34.0382 49.6041 33.7336C49.7689 32.5026 50.0356 26.3118 49.2611 25.4999C49.2397 25.4732 49.2129 25.4514 49.1824 25.4361C49.1519 25.4207 49.1184 25.4122 49.0843 25.411ZM24.1649 2.49707C27.0832 2.49707 29.4303 4.85663 29.4303 7.77448C29.4303 10.6799 27.0832 13.0659 24.1649 13.0659C21.272 13.0659 18.8995 10.7053 18.8995 7.77448C18.899 4.88259 21.2465 2.49707 24.1649 2.49707ZM24.3172 3.74002C22.3886 3.74002 20.8151 5.28809 20.8151 7.22916C20.8151 9.15726 22.3881 10.7178 24.3172 10.7178C24.7757 10.7191 25.23 10.6298 25.6539 10.455C26.0779 10.2801 26.463 10.0232 26.7873 9.69901C27.1116 9.37481 27.3686 8.98971 27.5436 8.56584C27.7186 8.14198 27.808 7.68772 27.8068 7.22916C27.807 6.77088 27.7168 6.31707 27.5415 5.89366C27.3661 5.47024 27.1091 5.08553 26.785 4.7615C26.4609 4.43747 26.0762 4.18047 25.6527 4.0052C25.2293 3.82993 24.7755 3.73982 24.3172 3.74002Z"
                          fill="#001965"
                        ></path>
                      </svg>
