<?xml version="1.0" encoding="UTF-8"?>
<svg
                                      viewBox="0 0 16 16"
                                      fill="none"
                                      xmlns="http://www.w3.org/2000/svg"
                                    >
                                      <path
                                        opacity="0.45"
                                        d="M7.53469 14.4099C7.68229 14.496 7.75608 14.5391 7.86023 14.5614C7.94106 14.5787 8.05898 14.5787 8.13981 14.5614C8.24396 14.5391 8.31775 14.496 8.46535 14.4099C9.76405 13.6523 13.3334 11.2723 13.3334 8V4.81173C13.3334 4.27872 13.3334 4.01222 13.2462 3.78313C13.1692 3.58076 13.044 3.40018 12.8816 3.25702C12.6977 3.09495 12.4482 3.00138 11.9491 2.81423L8.37455 1.47378C8.23596 1.4218 8.16666 1.39582 8.09536 1.38552C8.03213 1.37638 7.96791 1.37638 7.90468 1.38552C7.83338 1.39582 7.76409 1.4218 7.62549 1.47378L4.05096 2.81423C3.55189 3.00138 3.30235 3.09495 3.11846 3.25702C2.95601 3.40018 2.83087 3.58076 2.75386 3.78313C2.66669 4.01222 2.66669 4.27872 2.66669 4.81173V8C2.66669 11.2723 6.23599 13.6523 7.53469 14.4099Z"
                                        stroke="currentColor"
                                        stroke-width="2"
                                        stroke-linecap="round"
                                        stroke-linejoin="round"
                                      />
                                      <path
                                        d="M6 7.66667L7.33333 9L10.3333 6"
                                        stroke="currentColor"
                                        stroke-width="2"
                                        stroke-linecap="round"
                                        stroke-linejoin="round"
                                      />
                                    </svg>
